<?xml version="1.0"?>
<svg xmlns="http://www.w3.org/2000/svg" id="icon" height="512px" viewBox="0 0 128 128" width="512px" class="hovered-paths"><g><circle cx="82.121" cy="82.018" fill="#eeefee" r="2.562" data-original="#EEEFEE" class="" style="fill:#000000" data-old_color="#eeefee"/><circle cx="78.942" cy="78.05" fill="#eeefee" r=".556" data-original="#EEEFEE" class="" style="fill:#000000" data-old_color="#eeefee"/><path d="m86.887 81.663a.781.781 0 0 1 -.77.792.755.755 0 0 1 -.574-.266.475.475 0 0 0 -.357-.172.466.466 0 0 0 -.165.03l-.824.318.203.635a.668.668 0 0 0 .265.348.641.641 0 0 0 .35.113h.044.048a.508.508 0 1 1 -.476.708.676.676 0 0 0 -.189-.256l-.543-.451-.6.562-.113.49a.928.928 0 0 0 .029.522l.015.043a.87.87 0 0 0 .277.4.63.63 0 1 1 -.961.253.985.985 0 0 0 .054-.671l-.023-.077-.243-.6h-.8l-.356.4a.947.947 0 0 0 -.116.164v.005a1.867 1.867 0 0 0 -.188.745.509.509 0 0 1 -.621.5.554.554 0 0 1 -.389-.414.507.507 0 0 1 .221-.505.955.955 0 0 0 .339-.359l.073-.141a.871.871 0 0 0 .1-.357l.025-.5-.591-.692-.63.015a.655.655 0 0 0 -.253.057.625.625 0 0 0 -.314.3.706.706 0 1 1 -.308-.93.65.65 0 0 0 .442.061l.04-.009a.655.655 0 0 0 .263-.123l.386-.3.252-1.208-.166-.4a.432.432 0 0 0 -.129-.172.449.449 0 0 0 -.313-.092.531.531 0 0 1 -.188-.022.5.5 0 0 1 -.284-.231.507.507 0 1 1 .929-.389.4.4 0 0 0 .157.214l.071.052a.449.449 0 0 0 .2.086l.376.061.59-.443.058-.479a.505.505 0 0 0 -.016-.2l-.035-.121a.523.523 0 0 0 -.222-.29.689.689 0 0 1 -.322-.576.758.758 0 0 1 1.511 0 .669.669 0 0 1 -.183.458.512.512 0 0 0 -.137.418.505.505 0 0 0 .079.209l.309.469 1.075.277.236-.1a1.876 1.876 0 0 0 .563-.377.373.373 0 0 0 .113-.268.509.509 0 1 1 .61.5.355.355 0 0 0 -.187.1 1.884 1.884 0 0 0 -.44.735l-.066.206.082.443.541.277a.45.45 0 0 0 .263.047l.157-.018a.465.465 0 0 0 .336-.223.763.763 0 0 1 .646-.362.781.781 0 0 1 .764.781z" fill="#eeefee" data-original="#EEEFEE" class="" style="fill:#000000" data-old_color="#eeefee"/><circle cx="78.796" cy="85.132" fill="#eeefee" r=".369" data-original="#EEEFEE" class="" style="fill:#000000" data-old_color="#eeefee"/><circle cx="83.497" cy="78.049" fill="#eeefee" r=".369" data-original="#EEEFEE" class="" style="fill:#000000" data-old_color="#eeefee"/><circle cx="85.315" cy="85.72" fill="#eeefee" r=".529" data-original="#EEEFEE" class="" style="fill:#000000" data-old_color="#eeefee"/><circle cx="80.97" cy="81.263" fill="#dbd8dd" r=".498" data-original="#DBD8DD"/><circle cx="83.436" cy="81.761" fill="#dbd8dd" r=".387" data-original="#DBD8DD"/><circle cx="82.588" cy="83.498" fill="#dbd8dd" r=".279" data-original="#DBD8DD"/><circle cx="82.4" cy="80.693" fill="#dbd8dd" r=".279" data-original="#DBD8DD"/><circle cx="81.556" cy="82.471" fill="#dbd8dd" r=".324" data-original="#DBD8DD"/><circle cx="91.159" cy="40.99" fill="#eeefee" r="2.285" data-original="#EEEFEE" class="" style="fill:#000000" data-old_color="#eeefee"/><circle cx="88.323" cy="37.451" fill="#eeefee" r=".496" data-original="#EEEFEE" class="" style="fill:#000000" data-old_color="#eeefee"/><path d="m95.41 40.674a.7.7 0 0 1 -.687.706.673.673 0 0 1 -.512-.237.424.424 0 0 0 -.319-.153.415.415 0 0 0 -.147.027l-.735.284.184.563a.6.6 0 0 0 .236.31.572.572 0 0 0 .312.1h.039.043a.453.453 0 1 1 -.425.631.6.6 0 0 0 -.168-.229l-.484-.4-.534.5-.1.437a.828.828 0 0 0 .026.466l.013.038a.776.776 0 0 0 .247.361.562.562 0 1 1 -.857.226.879.879 0 0 0 .048-.6l-.02-.069-.217-.534h-.715l-.318.357a.845.845 0 0 0 -.1.146 1.665 1.665 0 0 0 -.168.665.454.454 0 0 1 -.554.443.494.494 0 0 1 -.347-.37.452.452 0 0 1 .2-.451.852.852 0 0 0 .3-.32l.065-.125a.777.777 0 0 0 .086-.319l.023-.447-.527-.617-.562.013a.584.584 0 0 0 -.226.051.557.557 0 0 0 -.28.267.629.629 0 1 1 -.274-.829.58.58 0 0 0 .395.054l.036-.008a.584.584 0 0 0 .235-.11l.344-.267.225-1.077-.148-.358a.385.385 0 0 0 -.115-.153.4.4 0 0 0 -.279-.082.474.474 0 0 1 -.168-.02.444.444 0 0 1 -.253-.206.453.453 0 1 1 .821-.338.361.361 0 0 0 .14.191l.063.046a.4.4 0 0 0 .176.077l.336.054.526-.4.051-.427a.451.451 0 0 0 -.015-.179l-.031-.108a.466.466 0 0 0 -.195-.254.614.614 0 0 1 -.287-.514.676.676 0 0 1 1.348 0 .6.6 0 0 1 -.164.409.456.456 0 0 0 -.122.373.451.451 0 0 0 .07.186l.276.419.958.247.21-.091a1.673 1.673 0 0 0 .5-.336.332.332 0 0 0 .1-.239.454.454 0 1 1 .544.444.316.316 0 0 0 -.166.088 1.681 1.681 0 0 0 -.392.656l-.059.184.073.4.482.247a.4.4 0 0 0 .234.042l.14-.016a.414.414 0 0 0 .3-.2.68.68 0 0 1 .576-.323.7.7 0 0 1 .689.698z" fill="#eeefee" data-original="#EEEFEE" class="" style="fill:#000000" data-old_color="#eeefee"/><circle cx="88.193" cy="43.768" fill="#eeefee" r=".329" data-original="#EEEFEE" class="" style="fill:#000000" data-old_color="#eeefee"/><circle cx="92.386" cy="37.451" fill="#eeefee" r=".329" data-original="#EEEFEE" class="" style="fill:#000000" data-old_color="#eeefee"/><circle cx="94.007" cy="44.292" fill="#eeefee" r=".472" data-original="#EEEFEE" class="" style="fill:#000000" data-old_color="#eeefee"/><circle cx="90.132" cy="40.317" fill="#dbd8dd" r=".444" data-original="#DBD8DD"/><circle cx="92.332" cy="40.761" fill="#dbd8dd" r=".345" data-original="#DBD8DD"/><circle cx="91.575" cy="42.31" fill="#dbd8dd" r=".249" data-original="#DBD8DD"/><circle cx="91.407" cy="39.809" fill="#dbd8dd" r=".249" data-original="#DBD8DD"/><circle cx="90.655" cy="41.395" fill="#dbd8dd" r=".289" data-original="#DBD8DD"/><circle cx="103.268" cy="57.621" fill="#eeefee" r="3.081" data-original="#EEEFEE" class="" style="fill:#000000" data-old_color="#eeefee"/><circle cx="99.445" cy="52.849" fill="#eeefee" r=".669" data-original="#EEEFEE" class="" style="fill:#000000" data-old_color="#eeefee"/><path d="m109 57.2a.94.94 0 0 1 -.926.953.908.908 0 0 1 -.691-.32.572.572 0 0 0 -.43-.207.56.56 0 0 0 -.2.036l-.991.382.248.76a.8.8 0 0 0 .318.419.771.771 0 0 0 .421.135h.053.058a.611.611 0 1 1 -.573.851.813.813 0 0 0 -.227-.308l-.653-.543-.721.676-.135.589a1.116 1.116 0 0 0 .035.628l.018.051a1.046 1.046 0 0 0 .333.486.758.758 0 1 1 -1.156.3 1.185 1.185 0 0 0 .065-.807l-.028-.093-.292-.721h-.964l-.429.481a1.139 1.139 0 0 0 -.139.2v.006a2.245 2.245 0 0 0 -.226.9.612.612 0 0 1 -.747.6.666.666 0 0 1 -.467-.5.61.61 0 0 1 .266-.608 1.149 1.149 0 0 0 .407-.431l.088-.169a1.048 1.048 0 0 0 .116-.43l.03-.6-.711-.832-.757.018a.787.787 0 0 0 -.3.069.751.751 0 0 0 -.378.36.848.848 0 1 1 -.37-1.118.782.782 0 0 0 .532.073l.048-.01a.787.787 0 0 0 .317-.148l.464-.36.3-1.453-.2-.482a.519.519 0 0 0 -.155-.207.54.54 0 0 0 -.376-.111.639.639 0 0 1 -.226-.027.6.6 0 0 1 -.341-.278.61.61 0 1 1 1.117-.468.487.487 0 0 0 .189.258l.085.062a.54.54 0 0 0 .238.1l.453.073.709-.533.069-.576a.608.608 0 0 0 -.02-.242l-.042-.146a.629.629 0 0 0 -.266-.348.828.828 0 0 1 -.387-.693.911.911 0 0 1 1.817 0 .8.8 0 0 1 -.221.551.615.615 0 0 0 -.164.5.608.608 0 0 0 .095.251l.372.564 1.292.333.283-.123a2.256 2.256 0 0 0 .677-.453.448.448 0 0 0 .136-.322.612.612 0 1 1 .734.6.426.426 0 0 0 -.224.118 2.266 2.266 0 0 0 -.529.884l-.079.248.1.533.651.333a.541.541 0 0 0 .316.056l.189-.021a.559.559 0 0 0 .4-.268.917.917 0 0 1 .777-.435.939.939 0 0 1 .925.954z" fill="#eeefee" data-original="#EEEFEE" class="" style="fill:#000000" data-old_color="#eeefee"/><circle cx="99.27" cy="61.367" fill="#eeefee" r=".444" data-original="#EEEFEE" class="" style="fill:#000000" data-old_color="#eeefee"/><circle cx="104.923" cy="52.849" fill="#eeefee" r=".444" data-original="#EEEFEE" class="" style="fill:#000000" data-old_color="#eeefee"/><circle cx="107.109" cy="62.073" fill="#eeefee" r=".636" data-original="#EEEFEE" class="" style="fill:#000000" data-old_color="#eeefee"/><circle cx="101.884" cy="56.713" fill="#dbd8dd" r=".599" data-original="#DBD8DD"/><circle cx="104.85" cy="57.312" fill="#dbd8dd" r=".465" data-original="#DBD8DD"/><circle cx="103.829" cy="59.401" fill="#dbd8dd" r=".335" data-original="#DBD8DD"/><circle cx="103.604" cy="56.028" fill="#dbd8dd" r=".335" data-original="#DBD8DD"/><circle cx="102.589" cy="58.167" fill="#dbd8dd" r=".389" data-original="#DBD8DD"/><path d="m68.272 37.411a8.97 8.97 0 0 0 1.773 4.739 2.344 2.344 0 0 1 .336.766 12.124 12.124 0 0 1 .184 4.142l4.969 6.2a2.072 2.072 0 0 1 -.918 3.256 5.165 5.165 0 0 1 -1.9.25.427.427 0 0 0 -.377.184 2.678 2.678 0 0 0 -.208 2.239s1.409 1.465-2.348 1.751a.553.553 0 0 0 -.1 1l2.131.65a.86.86 0 0 1 .574 1.09 1.778 1.778 0 0 1 -.556.815 5.416 5.416 0 0 0 0 3.3c.465 2.127 1.835 3.391-5.257 4.249a5.841 5.841 0 0 0 -3.654 1.908 36.259 36.259 0 0 0 -5.584 9.063l-17.579-14.462v-6.623l3.248-4.394.318-5.8 1.083-7.361 4.649-2.064 6.368-3.184 4.139-5.8h8.537z" fill="#fed19a" data-original="#FED19A" class=""/><path d="m56.188 52.695s1.684-.919 2.071-4.331a5.354 5.354 0 0 1 .941-2.514l2.067-2.9a5.206 5.206 0 0 0 .934-3.662 10.666 10.666 0 0 0 -.95-3.31s.567-.872 5.031-.617a1.755 1.755 0 0 1 1.362.758 5.936 5.936 0 0 1 .628 1.292s6.591-6.687-4.2-11.463c0 0-21.508-6.3-29.787 7.387a19 19 0 0 0 -5.005 11.858 15.783 15.783 0 0 0 1.837 7.945c1.476 2.821 4.187 7.3 7.587 9.75a4.654 4.654 0 0 0 3.47.846c1.679-.276 3.778-1.293 3.7-4.672-.13-5.603-.257-18.913 10.314-6.367z" fill="#414451" data-original="#414451"/><path d="m65.645 99.5c-1.179-15.482-18.78-27.925-24.984-31.85a2.321 2.321 0 0 0 -3.293.883 30.174 30.174 0 0 1 -5.278 7.181c-3.514 3.543-8.931 11.278-6.469 23.786z" fill="#2cbfae" data-original="#2CBFAE" class="hovered-path active-path" style="fill:#A69DEA" data-old_color="#2cbfae"/><g fill="#eeefee"><path d="m76.185 60.082a.764.764 0 0 1 -.347-1.446l3.225-1.636a.764.764 0 0 1 .692 1.363l-3.225 1.637a.763.763 0 0 1 -.345.082z" data-original="#EEEFEE" class="" style="fill:#000000" data-old_color="#EEEFEE"/><path d="m82.954 56.683a.764.764 0 0 1 -.347-1.446l3.225-1.637a.764.764 0 0 1 .692 1.363l-3.224 1.637a.763.763 0 0 1 -.346.083z" data-original="#EEEFEE" class="" style="fill:#000000" data-old_color="#EEEFEE"/><path d="m89.724 53.284a.764.764 0 0 1 -.347-1.446l3.223-1.638a.764.764 0 0 1 .692 1.363l-3.223 1.637a.763.763 0 0 1 -.345.084z" data-original="#EEEFEE" class="" style="fill:#000000" data-old_color="#EEEFEE"/><path d="m79.408 69.36a.763.763 0 0 1 -.345-.083l-3.225-1.636a.764.764 0 0 1 .692-1.363l3.225 1.636a.764.764 0 0 1 -.347 1.446z" data-original="#EEEFEE" class="" style="fill:#000000" data-old_color="#EEEFEE"/><path d="m86.177 72.759a.763.763 0 0 1 -.345-.083l-3.224-1.636a.764.764 0 0 1 .692-1.363l3.225 1.636a.764.764 0 0 1 -.347 1.446z" data-original="#EEEFEE" class="" style="fill:#000000" data-old_color="#EEEFEE"/><path d="m92.947 76.158a.763.763 0 0 1 -.345-.083l-3.224-1.636a.764.764 0 0 1 .692-1.363l3.224 1.636a.764.764 0 0 1 -.347 1.446z" data-original="#EEEFEE" class="" style="fill:#000000" data-old_color="#EEEFEE"/><path d="m80.26 63.9h-4.076a.764.764 0 0 1 0-1.528h4.076a.764.764 0 0 1 0 1.528z" data-original="#EEEFEE" class="" style="fill:#000000" data-old_color="#EEEFEE"/><path d="m87.711 63.9h-4.076a.764.764 0 0 1 0-1.528h4.076a.764.764 0 0 1 0 1.528z" data-original="#EEEFEE" class="" style="fill:#000000" data-old_color="#EEEFEE"/><path d="m95.161 63.9h-4.075a.764.764 0 1 1 0-1.528h4.076a.764.764 0 0 1 0 1.528z" data-original="#EEEFEE" class="" style="fill:#000000" data-old_color="#EEEFEE"/></g></g> </svg>
