<?xml version="1.0" ?><svg id="icon" viewBox="0 0 512 512" xmlns="http://www.w3.org/2000/svg"><defs><style>.cls-1{fill:#00c67f;}.cls-2{fill:#36d39a;}.cls-3{fill:#b0ebce;}</style></defs><title/><path class="cls-1" d="M254.167,147.134V86.405a6.186,6.186,0,1,0-12.371,0v60.729a6.186,6.186,0,0,0,12.371,0Z"/><path class="cls-1" d="M343.377,106.023a6.187,6.187,0,0,0-8.609,1.554l-37.157,53.155a6.186,6.186,0,1,0,10.164,7.054l37.157-53.155A6.185,6.185,0,0,0,343.377,106.023Z"/><path class="cls-1" d="M331.717,210.446a6.185,6.185,0,0,0,8.521,1.979l37.667-23.475a6.186,6.186,0,0,0-6.544-10.5L333.7,201.925A6.186,6.186,0,0,0,331.717,210.446Z"/><path class="cls-1" d="M420.361,261.3l-76.61-8.5a6.186,6.186,0,1,0-1.363,12.3c.533.059,76.763,8.537,77.3,8.537a6.186,6.186,0,0,0,.674-12.334Z"/><path class="cls-1" d="M320.485,306.265a6.186,6.186,0,0,0-8.711,8.785l47.311,46.939A6.186,6.186,0,0,0,367.8,353.2Z"/><path class="cls-1" d="M260.609,336.844a6.185,6.185,0,1,0-12.032,2.872l22.654,94.929a6.185,6.185,0,1,0,12.032-2.872Z"/><path class="cls-1" d="M206.905,322.876a6.183,6.183,0,0,0-8.284,2.806l-22.814,46.656a6.185,6.185,0,1,0,11.091,5.48l22.813-46.657A6.183,6.183,0,0,0,206.905,322.876Z"/><path class="cls-1" d="M161.56,285.182l-68.427,37.86a6.185,6.185,0,0,0,5.988,10.825l68.427-37.86a6.185,6.185,0,0,0-5.988-10.825Z"/><path class="cls-1" d="M96.071,251.329c.076,0,.153,0,.23,0l55.944-2.047a6.186,6.186,0,1,0-.453-12.363l-55.944,2.047a6.186,6.186,0,0,0,.223,12.367Z"/><path class="cls-1" d="M168.5,188.971,96.483,146.442a6.185,6.185,0,0,0-6.29,10.652l72.015,42.53a6.186,6.186,0,0,0,6.29-10.653Z"/><path class="cls-1" d="M191.364,163.631a6.185,6.185,0,1,0,11.2-5.247l-34.851-74.4a6.186,6.186,0,1,0-11.2,5.248Z"/><path class="cls-1" d="M343.947,245.325c0,62.56-58.958,108.37-119.525,93.041a95.972,95.972,0,1,1,119.525-93.041Z"/><path class="cls-2" d="M254.164,245.325c0,36.608-11.423,69.629-29.742,93.041a95.99,95.99,0,0,1,0-186.093C242.741,175.686,254.164,208.717,254.164,245.325Z"/><ellipse class="cls-2" cx="247.984" cy="72.559" rx="24.302" ry="16.072"/><ellipse class="cls-2" cx="347.85" cy="102.725" rx="16.072" ry="24.302" transform="translate(69.73 335.537) rotate(-56.385)"/><ellipse class="cls-2" cx="388.597" cy="177.967" rx="16.072" ry="24.302" transform="translate(-37.134 215.824) rotate(-29.688)"/><ellipse class="cls-2" cx="435.605" cy="271.854" rx="24.302" ry="16.072" transform="translate(107.15 666.535) rotate(-82.2)"/><ellipse class="cls-2" cx="371.897" cy="370.914" rx="24.302" ry="16.072" transform="translate(-153.022 352.354) rotate(-42.899)"/><ellipse class="cls-2" cx="277.332" cy="439.396" rx="24.302" ry="16.072" transform="translate(-92.736 74.661) rotate(-13.157)"/><ellipse class="cls-2" cx="179.022" cy="383.32" rx="16.072" ry="24.302" transform="translate(-244.041 384.388) rotate(-65.111)"/><ellipse class="cls-2" cx="81.447" cy="339.088" rx="16.072" ry="24.302" transform="translate(-166.259 93.617) rotate(-31.753)"/><ellipse class="cls-2" cx="80.004" cy="248.165" rx="16.072" ry="24.302" transform="translate(-5.44 1.82) rotate(-1.261)"/><ellipse class="cls-2" cx="79.065" cy="143.774" rx="24.302" ry="16.072" transform="matrix(0.549, -0.836, 0.836, 0.549, -84.508, 130.889)"/><ellipse class="cls-2" cx="153.796" cy="73.997" rx="24.302" ry="16.072" transform="translate(-16.864 75.991) rotate(-26.364)"/><circle class="cls-3" cx="202.547" cy="224.456" r="14.666"/><circle class="cls-3" cx="296.822" cy="246.181" r="25.151"/><circle class="cls-3" cx="228.637" cy="294.029" r="18.855"/><circle class="cls-3" cx="254.595" cy="196.525" r="13.266"/></svg>