<svg id="Capa_1" enable-background="new 0 0 512 512" height="512" viewBox="0 0 512 512" width="512" xmlns="http://www.w3.org/2000/svg"><g><g><path d="m446.138 215.612c-8.693.41-15.381 7.898-15.381 16.601v.134c0 4.137-3.353 7.49-7.49 7.49h-12.443c-13.35 0-25.17-8.724-28.994-21.514-2.56-8.564-5.971-16.76-10.134-24.492-6.361-11.813-4.284-26.386 5.203-35.874l8.805-8.805c2.925-2.925 7.667-2.925 10.592 0l.095.095c6.154 6.154 16.178 6.72 22.614.862 6.872-6.254 7.061-16.902.566-23.397l-33.962-33.962c-6.154-6.154-16.178-6.72-22.614-.862-6.872 6.254-7.061 16.902-.566 23.397l.418.418c2.925 2.925 2.925 7.667 0 10.592l-8.805 8.805c-9.488 9.488-24.061 11.564-35.874 5.203-7.731-4.163-15.928-7.573-24.491-10.133-12.79-3.824-21.514-15.644-21.514-28.994v-12.443c0-4.137 3.353-7.49 7.49-7.49h.135c8.703 0 16.191-6.688 16.6-15.381.437-9.282-6.959-16.944-16.144-16.944h-48.031c-8.703 0-16.191 6.688-16.601 15.381-.437 9.282 6.959 16.944 16.144 16.944h.591c4.137 0 7.49 3.353 7.49 7.49v12.443c0 13.35-8.724 25.17-21.514 28.994-8.564 2.56-16.76 5.971-24.491 10.133-11.814 6.361-26.387 4.284-35.874-5.203l-8.805-8.805c-2.925-2.925-2.925-7.667 0-10.592l.095-.095c6.154-6.154 6.72-16.178.862-22.614-6.254-6.872-16.902-7.061-23.397-.566l-33.963 33.963c-6.154 6.154-6.72 16.178-.862 22.614 6.254 6.872 16.902 7.061 23.397.566l.418-.418c2.925-2.925 7.667-2.925 10.592 0l8.805 8.805c9.487 9.487 11.564 24.06 5.203 35.873-4.163 7.732-7.574 15.928-10.134 24.492-3.824 12.79-15.644 21.514-28.994 21.514h-12.442c-4.137 0-7.49-3.353-7.49-7.49v-.134c0-8.703-6.688-16.191-15.381-16.601-9.281-.437-16.944 6.958-16.944 16.144v48.031c0 8.703 6.688 16.191 15.381 16.601 9.282.437 16.944-6.959 16.944-16.144v-.591c0-4.137 3.353-7.49 7.49-7.49h12.443c13.35 0 25.17 8.724 28.994 21.514 2.56 8.564 5.971 16.761 10.134 24.492 6.361 11.813 4.284 26.386-5.204 35.873l-8.805 8.805c-2.925 2.925-7.667 2.925-10.592 0l-.095-.095c-6.154-6.154-16.178-6.72-22.614-.862-6.872 6.254-7.061 16.902-.566 23.397l33.963 33.963c6.154 6.154 16.178 6.72 22.614.862 6.872-6.254 7.06-16.902.565-23.397l-.418-.418c-2.925-2.925-2.925-7.667 0-10.592l8.805-8.805c9.487-9.487 24.06-11.564 35.874-5.203 7.732 4.163 15.928 7.573 24.492 10.134 12.79 3.824 21.514 15.644 21.514 28.994v12.443c0 4.137-3.353 7.49-7.49 7.49h-.591c-8.926 0-16.163 7.236-16.163 16.163 0 8.926 7.236 16.163 16.163 16.163h48.488c8.926 0 16.163-7.236 16.163-16.163 0-8.926-7.236-16.163-16.163-16.163h-.591c-4.137 0-7.49-3.353-7.49-7.49v-12.443c0-13.35 8.724-25.17 21.514-28.994 8.564-2.56 16.76-5.971 24.492-10.134 11.814-6.361 26.386-4.284 35.874 5.203l8.805 8.805c2.925 2.925 2.925 7.667 0 10.592l-.095.095c-6.154 6.154-6.72 16.178-.862 22.614 6.254 6.872 16.902 7.061 23.397.566l33.963-33.963c6.154-6.154 6.72-16.178.862-22.615-6.254-6.872-16.902-7.061-23.397-.565l-.418.418c-2.925 2.925-7.667 2.925-10.592 0l-8.805-8.805c-9.487-9.487-11.564-24.06-5.204-35.873 4.163-7.732 7.574-15.928 10.134-24.492 3.824-12.79 15.644-21.514 28.994-21.514h12.443c4.137 0 7.49 3.353 7.49 7.49v.135c0 8.703 6.688 16.191 15.381 16.601 9.282.437 16.944-6.959 16.944-16.144v-48.488c-.001-9.187-7.664-16.582-16.945-16.145z" fill="#ac80dd"/><g fill="#9d66d5"><path d="m362.847 126.295-.001.001c4.151 12.645 7.002 25.879 8.374 39.551 1.426-2.863 3.323-5.534 5.679-7.89l8.805-8.805c2.925-2.925 7.667-2.925 10.592 0l.095.095c6.154 6.154 16.178 6.72 22.614.862 6.872-6.254 7.061-16.902.566-23.397l-33.962-33.962c-6.154-6.154-16.178-6.72-22.614-.862-6.872 6.254-7.061 16.902-.566 23.397l.418.418c2.925 2.925 2.925 7.667 0 10.592z"/><path d="m446.138 215.612c-8.693.41-15.381 7.898-15.381 16.601v.134c0 4.137-3.353 7.49-7.49 7.49h-12.443c-13.326 0-25.165-8.683-28.976-21.452-2.513-8.422-5.853-16.487-9.918-24.106-4.788 95.932-81.719 172.863-177.651 177.651 7.62 4.065 15.684 7.405 24.107 9.919 12.769 3.811 21.452 15.65 21.452 28.975v12.443c0 4.137-3.353 7.49-7.49 7.49h-.135c-8.703 0-16.191 6.688-16.601 15.381-.437 9.281 6.959 16.944 16.144 16.944h48.031c8.703 0 16.191-6.688 16.6-15.381.437-9.282-6.959-16.944-16.144-16.944h-.591c-4.137 0-7.49-3.353-7.49-7.49v-12.443c0-13.35 8.724-25.17 21.514-28.994 8.564-2.56 16.76-5.971 24.492-10.134 11.814-6.361 26.386-4.284 35.874 5.203l8.805 8.805c2.925 2.925 2.925 7.667 0 10.592l-.095.095c-6.154 6.154-6.72 16.178-.862 22.614 6.254 6.872 16.902 7.061 23.397.566l33.963-33.963c6.154-6.154 6.72-16.178.862-22.615-6.254-6.872-16.902-7.061-23.397-.565l-.418.418c-2.925 2.925-7.667 2.925-10.592 0l-8.805-8.805c-9.487-9.487-11.564-24.06-5.204-35.873 4.163-7.732 7.574-15.928 10.134-24.492 3.824-12.79 15.644-21.514 28.994-21.514h12.443c4.137 0 7.49 3.353 7.49 7.49v.135c0 8.703 6.688 16.191 15.381 16.601 9.282.437 16.944-6.959 16.944-16.144v-48.488c0-9.186-7.663-16.581-16.944-16.144z"/><path d="m165.847 371.22c-13.672-1.372-26.906-4.223-39.551-8.374l-.001.001c-2.925 2.925-7.667 2.925-10.592 0l-.095-.095c-6.154-6.154-16.178-6.72-22.614-.862-6.872 6.254-7.061 16.902-.566 23.397l33.963 33.963c6.154 6.154 16.178 6.72 22.614.862 6.872-6.254 7.06-16.902.565-23.397l-.418-.418c-2.925-2.925-2.925-7.667 0-10.592l8.805-8.805c2.357-2.357 5.027-4.254 7.89-5.68z"/></g><circle cx="256" cy="256" fill="#e7a2cb" r="50.508"/><path d="m279.686 211.389c3.759 7.065 5.897 15.125 5.897 23.686 0 27.895-22.613 50.508-50.508 50.508-8.561 0-16.621-2.138-23.686-5.897 8.489 15.955 25.278 26.822 44.611 26.822 27.895 0 50.508-22.613 50.508-50.508 0-19.333-10.867-36.122-26.822-44.611z" fill="#e278b1"/></g><g fill="#e7a2cb"><circle cx="190.999" cy="190.999" r="11.112"/><circle cx="190.999" cy="321" r="11.112"/><circle cx="321" cy="321" r="11.112"/><circle cx="321" cy="190.999" r="11.112"/></g><g fill="#ac80dd"><path d="m508.248 473.426c-2.845-1.641-6.312-1.204-8.66.832l-5.762-3.327c.558-2.189.856-4.48.856-6.84s-.298-4.651-.856-6.84l5.77-3.331c1.373 1.189 3.119 1.843 4.908 1.843 1.272 0 2.561-.324 3.743-1.006 3.587-2.07 4.816-6.657 2.745-10.245l-5.051-8.749c-2.07-3.588-6.657-4.814-10.245-2.745-2.843 1.641-4.197 4.863-3.608 7.916l-5.781 3.338c-3.267-3.187-7.316-5.572-11.829-6.844v-6.661c2.938-1.016 5.051-3.799 5.051-7.083 0-4.143-3.357-7.5-7.5-7.5h-10.102c-4.143 0-7.5 3.357-7.5 7.5 0 3.284 2.113 6.067 5.051 7.083v6.661c-4.513 1.271-8.561 3.656-11.828 6.843l-5.781-3.338c.589-3.053-.765-6.275-3.608-7.916-3.589-2.073-8.175-.844-10.245 2.745l-5.051 8.749c-2.071 3.588-.842 8.175 2.745 10.245 1.182.683 2.471 1.006 3.743 1.006 1.789 0 3.536-.655 4.908-1.843l5.77 3.332c-.558 2.188-.856 4.48-.856 6.84s.298 4.651.856 6.84l-5.763 3.327c-2.349-2.036-5.816-2.473-8.659-.833-3.587 2.071-4.816 6.658-2.745 10.245l5.051 8.748c1.39 2.406 3.91 3.751 6.502 3.751 1.272 0 2.562-.324 3.743-1.006 2.843-1.642 4.197-4.863 3.608-7.915l5.781-3.338c3.267 3.187 7.316 5.572 11.828 6.843v6.66c-2.938 1.016-5.051 3.799-5.051 7.083 0 4.143 3.357 7.5 7.5 7.5h10.102c4.143 0 7.5-3.357 7.5-7.5 0-3.284-2.113-6.067-5.051-7.083v-6.66c4.513-1.271 8.561-3.657 11.829-6.844l5.781 3.338c-.589 3.052.765 6.273 3.608 7.915 1.182.682 2.471 1.006 3.743 1.006 2.592 0 5.113-1.345 6.502-3.751l5.051-8.748c2.074-3.585.844-8.171-2.743-10.243z"/><path d="m82.545 39.579c1.272 0 2.562-.324 3.743-1.006 3.587-2.071 4.816-6.658 2.745-10.245l-5.051-8.748c-2.072-3.587-6.659-4.815-10.245-2.745-2.843 1.642-4.197 4.863-3.608 7.915l-5.781 3.338c-3.267-3.187-7.316-5.572-11.828-6.843v-6.66c2.938-1.016 5.051-3.799 5.051-7.083 0-4.143-3.357-7.5-7.5-7.5h-10.102c-4.143 0-7.5 3.357-7.5 7.5 0 3.284 2.113 6.067 5.051 7.083v6.66c-4.513 1.271-8.561 3.657-11.829 6.844l-5.781-3.339c.589-3.052-.765-6.273-3.608-7.915-3.589-2.071-8.176-.843-10.245 2.745l-5.051 8.748c-2.071 3.587-.842 8.174 2.745 10.245 1.182.682 2.471 1.006 3.743 1.006 1.789 0 3.536-.654 4.908-1.843l5.77 3.331c-.558 2.189-.856 4.48-.856 6.84s.298 4.651.856 6.84l-5.762 3.327c-2.348-2.036-5.815-2.473-8.66-.833-3.587 2.07-4.816 6.657-2.745 10.245l5.051 8.749c1.389 2.406 3.91 3.751 6.502 3.751 1.272 0 2.562-.324 3.743-1.006 2.843-1.641 4.197-4.863 3.608-7.916l5.781-3.338c3.267 3.187 7.316 5.572 11.829 6.844v6.661c-2.938 1.016-5.051 3.799-5.051 7.083 0 4.143 3.357 7.5 7.5 7.5h10.102c4.143 0 7.5-3.357 7.5-7.5 0-3.284-2.113-6.067-5.051-7.083v-6.661c4.513-1.271 8.561-3.656 11.828-6.843l5.781 3.338c-.589 3.053.765 6.275 3.608 7.916 1.182.683 2.471 1.006 3.743 1.006 2.592 0 5.113-1.345 6.502-3.751l5.051-8.749c2.071-3.588.842-8.175-2.745-10.245-2.845-1.643-6.312-1.204-8.66.833l-5.762-3.327c.558-2.189.856-4.48.856-6.84s-.298-4.651-.856-6.84l5.77-3.331c1.374 1.188 3.12 1.842 4.91 1.842z"/><path d="m435.374 60.749c1.39 2.406 3.91 3.751 6.502 3.751 1.272 0 2.562-.324 3.743-1.006l3.324-1.919c2.354 2.086 5.125 3.708 8.171 4.729v3.827c0 4.143 3.357 7.5 7.5 7.5s7.5-3.357 7.5-7.5v-3.827c3.046-1.021 5.817-2.643 8.171-4.729l3.325 1.919c1.182.683 2.471 1.006 3.743 1.006 2.592 0 5.113-1.345 6.502-3.751 2.071-3.588.842-8.175-2.745-10.245l-3.308-1.91c.311-1.528.475-3.108.475-4.727s-.164-3.2-.475-4.728l3.308-1.91c3.587-2.07 4.816-6.657 2.745-10.245-2.07-3.588-6.656-4.814-10.245-2.745l-3.325 1.919c-2.354-2.086-5.125-3.708-8.171-4.729v-3.827c0-4.143-3.357-7.5-7.5-7.5s-7.5 3.357-7.5 7.5v3.827c-3.046 1.021-5.816 2.643-8.171 4.729l-3.324-1.919c-3.589-2.07-8.175-.843-10.245 2.745-2.071 3.587-.842 8.174 2.745 10.245l3.308 1.91c-.311 1.528-.475 3.109-.475 4.728 0 1.618.164 3.199.475 4.727l-3.308 1.91c-3.587 2.071-4.817 6.658-2.745 10.245z"/><path d="m70.131 457.114h-3.827c-1.021-3.046-2.643-5.816-4.729-8.171l1.919-3.324c2.071-3.587.842-8.174-2.745-10.245-3.589-2.071-8.175-.844-10.245 2.745l-1.91 3.308c-1.528-.311-3.108-.475-4.727-.475s-3.199.164-4.728.475l-1.91-3.308c-2.072-3.587-6.66-4.815-10.245-2.745-3.587 2.071-4.816 6.658-2.745 10.245l1.919 3.324c-2.086 2.354-3.708 5.125-4.729 8.171h-3.827c-4.143 0-7.5 3.357-7.5 7.5s3.357 7.5 7.5 7.5h3.827c1.021 3.046 2.643 5.817 4.729 8.171l-1.919 3.325c-2.071 3.588-.842 8.175 2.745 10.245 1.182.683 2.471 1.006 3.743 1.006 2.592 0 5.113-1.345 6.502-3.751l1.91-3.308c1.528.311 3.109.475 4.728.475 1.618 0 3.199-.164 4.727-.475l1.91 3.308c1.389 2.406 3.91 3.751 6.502 3.751 1.272 0 2.562-.324 3.743-1.006 3.587-2.07 4.816-6.657 2.745-10.245l-1.919-3.325c2.086-2.354 3.708-5.125 4.729-8.171h3.827c4.143 0 7.5-3.357 7.5-7.5s-3.358-7.5-7.5-7.5z"/></g></g></svg>